<?xml version="1.0" encoding="UTF-8"?>
<svg version="1.1" xmlns="http://www.w3.org/2000/svg" width="50" height="50">
<path d="M0 0 C1.65 0.33 3.3 0.66 5 1 C5 1.99 5 2.98 5 4 C5.94978897 6.15028304 5.94978897 6.15028304 7 8 C8.32 8 9.64 8 11 8 C11 9.98 11 11.96 11 14 C12.65 14 14.3 14 16 14 C16.11625936 18.56228541 16.18727408 23.12418928 16.25 27.6875 C16.30027344 29.62786133 16.30027344 29.62786133 16.3515625 31.60742188 C16.36445312 32.85458984 16.37734375 34.10175781 16.390625 35.38671875 C16.41157227 36.53358154 16.43251953 37.68044434 16.45410156 38.86206055 C15.89942227 42.69501378 14.74809778 44.31335834 12 47 C7.36755439 48.24083364 5.1453811 48.14416264 1 46 C0.41089844 46.30808594 -0.17820312 46.61617187 -0.78515625 46.93359375 C-3.45404357 48.21861357 -5.30597231 48.20247441 -8.25 48.125 C-9.8175 48.08375 -11.385 48.0425 -13 48 C-13.33 44.04 -13.66 40.08 -14 36 C-13.01 35.34 -12.02 34.68 -11 34 C-11.165 33.4225 -11.33 32.845 -11.5 32.25 C-12 30 -12 30 -12 26 C-12.20625 25.01 -12.4125 24.02 -12.625 23 C-13.03166031 19.74671748 -12.87691423 18.62767992 -11 16 C-10.01 15.34 -9.02 14.68 -8 14 C-7.26393501 10.43230448 -7.26393501 10.43230448 -7 7 C-5.68 7.66 -4.36 8.32 -3 9 C-1.37168238 7.19038423 -1.37168238 7.19038423 0 5 C-0.33 4.01 -0.66 3.02 -1 2 C-0.67 1.34 -0.34 0.68 0 0 Z M6 13 C5.01 13.66 4.02 14.32 3 15 C5.31 16.65 7.62 18.3 10 20 C10 18.35 10 16.7 10 15 C9.01 15 8.02 15 7 15 C6.67 14.34 6.34 13.68 6 13 Z M-6 20 C-6.33 20.99 -6.66 21.98 -7 23 C-4.03 23.495 -4.03 23.495 -1 24 C-1 22.68 -1 21.36 -1 20 C-2.65 20 -4.3 20 -6 20 Z M5 24 C4.22686955 29.9114744 3.85180723 35.1314592 5 41 C6.94603274 41.59070014 6.94603274 41.59070014 9 42 C10.87077602 40.12922398 10.30246057 37.19569029 10.375 34.6875 C10.42398438 33.53636719 10.47296875 32.38523437 10.5234375 31.19921875 C10.29605826 27.79896561 10.29605826 27.79896561 7.4765625 25.58203125 C6.65929687 25.05996094 5.84203125 24.53789062 5 24 Z M-7 38 C-7 39.32 -7 40.64 -7 42 C-5.35 41.67 -3.7 41.34 -2 41 C-1.67 39.68 -1.34 38.36 -1 37 C-3.02450921 37 -5.02400526 37.59466775 -7 38 Z " fill="#194E4C" transform="translate(24,1)"/>
<path d="M0 0 C1.93816735 0.1141866 3.87555099 0.24173423 5.8125 0.375 C6.89144531 0.44460937 7.97039063 0.51421875 9.08203125 0.5859375 C12 1 12 1 15 3 C15 3.66 15 4.32 15 5 C15.66 5 16.32 5 17 5 C17.66 7.97 18.32 10.94 19 14 C19.99 14 20.98 14 22 14 C22.33 10.04 22.66 6.08 23 2 C25 3 27 4 29 5 C29.61479609 13.79499966 29.61479609 13.79499966 27.4375 18.0625 C24.24574716 20.59953431 22.0471022 20.92773032 18 21 C16.65909241 20.34870203 15.32407669 19.68486725 14 19 C13.11634766 19.46212891 13.11634766 19.46212891 12.21484375 19.93359375 C9.54595643 21.21861357 7.69402769 21.20247441 4.75 21.125 C3.1825 21.08375 1.615 21.0425 0 21 C-0.33 17.04 -0.66 13.08 -1 9 C-0.01 8.34 0.98 7.68 2 7 C1.42415568 4.61435923 0.77772405 2.33317216 0 0 Z M6 11 C6 12.32 6 13.64 6 15 C7.65 14.67 9.3 14.34 11 14 C11.33 12.68 11.66 11.36 12 10 C9.97549079 10 7.97599474 10.59466775 6 11 Z " fill="#D7B055" transform="translate(11,28)"/>
<path d="M0 0 C1.65 0.33 3.3 0.66 5 1 C5 1.99 5 2.98 5 4 C5.94978897 6.15028304 5.94978897 6.15028304 7 8 C8.32 8 9.64 8 11 8 C11 9.98 11 11.96 11 14 C8.92446352 14.5534764 7.15634036 15 5 15 C4.39671875 15.18433594 3.7934375 15.36867188 3.171875 15.55859375 C0.55569146 16.09030012 -1.17179919 15.7070502 -3.75 15.0625 C-4.54921875 14.86785156 -5.3484375 14.67320313 -6.171875 14.47265625 C-6.77515625 14.31667969 -7.3784375 14.16070312 -8 14 C-7.67 11.69 -7.34 9.38 -7 7 C-5.68 7.66 -4.36 8.32 -3 9 C-1.37168238 7.19038423 -1.37168238 7.19038423 0 5 C-0.33 4.01 -0.66 3.02 -1 2 C-0.67 1.34 -0.34 0.68 0 0 Z " fill="#164645" transform="translate(24,1)"/>
<path d="M0 0 C2 1 4 2 6 3 C6.61479609 11.79499966 6.61479609 11.79499966 4.4375 16.0625 C1.29022865 18.56417723 -1.0239204 18.85273779 -5 19 C-5.66 18.67 -6.32 18.34 -7 18 C-6.25 15.5625 -6.25 15.5625 -5 13 C-3.68 12.67 -2.36 12.34 -1 12 C-0.67 8.04 -0.34 4.08 0 0 Z " fill="#DDB75D" transform="translate(34,30)"/>
<path d="M0 0 C1.93816735 0.1141866 3.87555099 0.24173423 5.8125 0.375 C6.89144531 0.44460937 7.97039063 0.51421875 9.08203125 0.5859375 C12 1 12 1 15 3 C15 3.66 15 4.32 15 5 C15.66 5 16.32 5 17 5 C17.33 7.31 17.66 9.62 18 12 C17.67 10.68 17.34 9.36 17 8 C14.48916886 9.25541557 14.12874554 10.50063488 13 13 C12.22227595 10.66682784 11.57584432 8.38564077 11 6 C9.1128125 6.12375 9.1128125 6.12375 7.1875 6.25 C3.28141531 6.26382685 3.28141531 6.26382685 1 4.125 C0 2 0 2 0 0 Z " fill="#E7C874" transform="translate(11,28)"/>
<path d="M0 0 C3.3125 0.4375 3.3125 0.4375 5.3125 2.4375 C5.3125 3.4275 5.3125 4.4175 5.3125 5.4375 C0.34186879 6.35047308 -3.71686879 6.35047308 -8.6875 5.4375 C-5.83512021 1.98006995 -4.54221922 0.53890737 0 0 Z " fill="#2C584D" transform="translate(18.6875,32.5625)"/>
<path d="M0 0 C0.99 0.33 1.98 0.66 3 1 C3 2.98 3 4.96 3 7 C1.68 7.33 0.36 7.66 -1 8 C-2.2077558 4.37673261 -1.54311128 3.35853631 0 0 Z " fill="#C3B268" transform="translate(32,8)"/>
<path d="M0 0 C4 2 4 2 5 4 C4.01 4 3.02 4 2 4 C2.04125 4.94875 2.0825 5.8975 2.125 6.875 C2 10 2 10 0 12 C0 8.04 0 4.08 0 0 Z " fill="#E5C76B" transform="translate(34,30)"/>
<path d="M0 0 C0.99 0.33 1.98 0.66 3 1 C3.33 2.98 3.66 4.96 4 7 C2.35 7 0.7 7 -1 7 C-0.67 4.69 -0.34 2.38 0 0 Z " fill="#D6B962" transform="translate(17,8)"/>
</svg>
